<?xml version="1.0" encoding="UTF-8" standalone="no"?>
<svg
   width="400"
   zoomAndPan="magnify"
   viewBox="0 0 300 299.99999"
   height="400"
   preserveAspectRatio="xMidYMid"
   version="1.0"
   id="svg10"
   sodipodi:docname="1.svg"
   inkscape:version="1.3 (0e150ed6c4, 2023-07-21)"
   xmlns:inkscape="http://www.inkscape.org/namespaces/inkscape"
   xmlns:sodipodi="http://sodipodi.sourceforge.net/DTD/sodipodi-0.dtd"
   xmlns="http://www.w3.org/2000/svg"
   xmlns:svg="http://www.w3.org/2000/svg">
  <sodipodi:namedview
     id="namedview10"
     pagecolor="#505050"
     bordercolor="#ffffff"
     borderopacity="1"
     inkscape:showpageshadow="0"
     inkscape:pageopacity="0"
     inkscape:pagecheckerboard="1"
     inkscape:deskcolor="#505050"
     showgrid="false"
     inkscape:zoom="1.642"
     inkscape:cx="199.75639"
     inkscape:cy="200.0609"
     inkscape:window-width="1920"
     inkscape:window-height="1017"
     inkscape:window-x="1912"
     inkscape:window-y="-8"
     inkscape:window-maximized="1"
     inkscape:current-layer="svg10" />
  <defs
     id="defs3">
    <clipPath
       id="44fc8a4f9a">
      <path
         d="m 37.5,37.5 h 300 v 300 h -300 z m 0,0"
         clip-rule="nonzero"
         id="path1" />
    </clipPath>
    <clipPath
       id="8723922a15">
      <path
         d="M 99.265625,118.32422 H 333.61719 V 331.85156 H 99.265625 Z m 0,0"
         clip-rule="nonzero"
         id="path2" />
    </clipPath>
    <clipPath
       id="70064b5b2d">
      <path
         d="m 337.5,187.5 c 0,82.84375 -67.15625,150 -150,150 -82.84375,0 -150,-67.15625 -150,-150 0,-82.84375 67.15625,-150 150,-150 82.84375,0 150,67.15625 150,150"
         clip-rule="nonzero"
         id="path3" />
    </clipPath>
  </defs>
  <g
     clip-path="url(#44fc8a4f9a)"
     id="g4"
     transform="translate(-37.5,-37.5)">
    <path
       fill="#c7ffc0"
       d="m 337.5,187.5 c 0,82.84375 -67.15625,150 -150,150 -82.84375,0 -150,-67.15625 -150,-150 0,-82.84375 67.15625,-150 150,-150 82.84375,0 150,67.15625 150,150"
       fill-opacity="1"
       fill-rule="nonzero"
       id="path4" />
  </g>
  <g
     clip-path="url(#8723922a15)"
     id="g6"
     transform="translate(-37.5,-37.5)">
    <g
       clip-path="url(#70064b5b2d)"
       id="g5">
      <path
         fill="#8cb387"
         d="m 229.00391,331.68359 -124.71094,-102.72265 -0.0664,-0.0625 c -0.0508,-0.0391 -0.10156,-0.082 -0.15234,-0.12891 -0.16406,-0.14062 -0.32422,-0.28516 -0.48438,-0.4375 -0.0586,-0.0508 -0.11328,-0.10547 -0.16796,-0.16016 -0.0391,-0.0352 -0.0781,-0.0703 -0.11329,-0.10546 -0.14453,-0.14454 -0.28515,-0.29688 -0.42578,-0.44532 l -0.043,-0.0469 c -0.18359,-0.20703 -0.36328,-0.41797 -0.53515,-0.62891 -0.0508,-0.0664 -0.0977,-0.1289 -0.14453,-0.1914 -0.12891,-0.16016 -0.25,-0.32422 -0.36719,-0.49219 -0.0469,-0.0664 -0.0937,-0.13672 -0.14063,-0.20703 -0.0312,-0.0391 -0.0586,-0.0781 -0.0898,-0.1211 -0.0508,-0.082 -0.0977,-0.16406 -0.14844,-0.24609 -0.0977,-0.15625 -0.19531,-0.3125 -0.28906,-0.47656 -0.0703,-0.11719 -0.13672,-0.23828 -0.20312,-0.35938 -0.0859,-0.16406 -0.16797,-0.32422 -0.25,-0.48828 -0.0625,-0.12891 -0.1211,-0.25391 -0.17969,-0.38281 -0.0742,-0.16406 -0.14453,-0.33203 -0.21485,-0.50391 -0.0508,-0.1289 -0.10156,-0.25781 -0.15234,-0.39062 -0.0625,-0.17188 -0.12109,-0.34375 -0.179688,-0.51953 -0.03906,-0.13282 -0.08594,-0.26563 -0.125,-0.39844 -0.05078,-0.17969 -0.09766,-0.36328 -0.140624,-0.54688 -0.03516,-0.13281 -0.07031,-0.26172 -0.09766,-0.39453 -0.04297,-0.1914 -0.07422,-0.38672 -0.109375,-0.58203 -0.02344,-0.125 -0.04687,-0.25391 -0.06641,-0.37891 -0.03125,-0.21875 -0.05078,-0.4375 -0.07031,-0.65625 -0.01172,-0.10546 -0.02734,-0.21484 -0.03516,-0.32421 -0.02344,-0.32813 -0.03516,-0.66016 -0.03516,-0.99219 V 156.707 c 0,-0.28906 0.01172,-0.58203 0.03125,-0.875 0.0039,-0.0898 0.01172,-0.17969 0.01953,-0.27344 0.01563,-0.19922 0.03906,-0.39843 0.0625,-0.59375 0.01172,-0.10547 0.02734,-0.21093 0.04297,-0.3125 0.02734,-0.1875 0.0625,-0.375 0.09766,-0.55859 0.01953,-0.10156 0.03906,-0.20313 0.05859,-0.30469 0.04297,-0.19922 0.09375,-0.39844 0.144531,-0.59375 0.01953,-0.082 0.03906,-0.16015 0.0625,-0.23828 0.07422,-0.27344 0.160156,-0.54687 0.253906,-0.8125 0.0156,-0.043 0.0352,-0.0859 0.0469,-0.12891 0.082,-0.22656 0.16797,-0.44531 0.25781,-0.66406 0.0391,-0.0898 0.0781,-0.17578 0.11719,-0.26172 0.0781,-0.17578 0.15625,-0.34765 0.24219,-0.51562 0.0469,-0.0937 0.0937,-0.1875 0.14453,-0.27735 0.0859,-0.16796 0.17578,-0.33203 0.26562,-0.49218 0.0508,-0.0859 0.10156,-0.17188 0.15235,-0.25782 0.10937,-0.18359 0.22656,-0.36328 0.34765,-0.54296 0.0391,-0.0547 0.0742,-0.11329 0.11328,-0.17188 0.16016,-0.23047 0.32813,-0.45703 0.50391,-0.67969 0.043,-0.0547 0.0898,-0.10547 0.12891,-0.16015 0.13671,-0.16407 0.27734,-0.32813 0.41796,-0.49219 0.0664,-0.0703 0.13672,-0.14453 0.20313,-0.21875 0.12891,-0.13672 0.26172,-0.27344 0.39453,-0.40234 0.0742,-0.0742 0.14844,-0.14844 0.22656,-0.21875 0.13672,-0.13282 0.28125,-0.26172 0.42578,-0.38672 0.0742,-0.0625 0.14454,-0.125 0.21875,-0.1875 l 0.0859,-0.0742 c 0.17969,-0.14844 0.36328,-0.28906 0.55469,-0.42969 0.0352,-0.0273 0.0742,-0.0508 0.10937,-0.0781 0.19141,-0.14063 0.38672,-0.26954 0.58985,-0.39844 0.0625,-0.043 0.125,-0.082 0.1914,-0.125 0.23829,-0.14844 0.48047,-0.29297 0.72657,-0.42578 2.01562,-1.09375 4.29687,-1.67188 6.58984,-1.67188 2.6875,0 5.29688,0.77344 7.54688,2.24219 l 47.22656,30.79297 c 0.22656,0.14844 0.44531,0.30078 0.66015,0.46094 0.0664,0.0508 0.13282,0.10156 0.19922,0.15234 0.14844,0.11328 0.29297,0.22656 0.4336,0.34375 0.0742,0.0586 0.14453,0.12109 0.21484,0.18359 0.13672,0.11719 0.26953,0.23828 0.40234,0.36328 0.0625,0.0586 0.125,0.11719 0.1875,0.17579 l 0.082,0.0781 0.0586,0.0586 c 0,0 4.51562,4.46094 11.85156,11.71094 l 0.0391,-0.0312 c 0.0391,-0.0391 0.082,-0.0742 0.125,-0.11328 0.0781,-0.0703 0.15625,-0.14062 0.23828,-0.20703 l 0.0937,-0.0703 c 0.0625,-0.0508 0.125,-0.0977 0.1875,-0.14453 0.10157,-0.0742 0.20704,-0.15235 0.3125,-0.22266 0.0664,-0.0469 0.13282,-0.0898 0.19922,-0.13281 0.11328,-0.0703 0.22657,-0.13672 0.33985,-0.20313 0.0664,-0.0352 0.13281,-0.0742 0.19531,-0.10937 0.13672,-0.0703 0.27344,-0.14063 0.41406,-0.20313 0.0469,-0.0195 0.0937,-0.0469 0.14453,-0.0703 l 0.0273,-0.0117 -2.53125,-2.51953 c -0.0547,-0.0547 -0.10938,-0.10938 -0.16407,-0.16797 l -0.0586,-0.0664 c -0.13281,-0.13671 -0.25391,-0.28125 -0.375,-0.42968 l -0.0664,-0.0898 c -0.11718,-0.15234 -0.23437,-0.30468 -0.33984,-0.46484 l -0.0391,-0.0586 c -0.0977,-0.15625 -0.19531,-0.3125 -0.28516,-0.47657 l -0.0391,-0.0664 c -0.0898,-0.16797 -0.17578,-0.34375 -0.25781,-0.51953 -0.0156,-0.0352 -0.0312,-0.0703 -0.0469,-0.10547 -0.0781,-0.17578 -0.14844,-0.35547 -0.21484,-0.54297 l -0.0273,-0.082 c -0.0625,-0.1836 -0.12109,-0.3711 -0.17187,-0.5586 l -0.0117,-0.0469 c -0.0469,-0.19531 -0.0898,-0.39453 -0.125,-0.59375 -0.008,-0.0391 -0.0117,-0.0781 -0.0195,-0.11719 -0.0312,-0.19531 -0.0586,-0.39453 -0.0781,-0.59766 0,-0.0391 -0.004,-0.0742 -0.008,-0.11328 -0.0156,-0.21093 -0.0234,-0.42578 -0.0234,-0.64453 v -8.70703 c 0,-0.21094 0.008,-0.41797 0.0234,-0.62109 0.004,-0.0547 0.008,-0.10547 0.0156,-0.15625 0.0195,-0.20313 0.043,-0.40235 0.0781,-0.60157 v -0.004 c 0.0352,-0.19922 0.0781,-0.39453 0.12891,-0.58985 0.0117,-0.0508 0.0273,-0.0977 0.0391,-0.14453 0.0508,-0.1914 0.10938,-0.3789 0.17578,-0.5664 v -0.004 c 0.0664,-0.1875 0.14063,-0.37109 0.22266,-0.55078 0.0195,-0.0469 0.0391,-0.0898 0.0586,-0.13281 0.082,-0.17578 0.16797,-0.35157 0.26172,-0.51953 l 0.004,-0.008 c 0.0937,-0.16797 0.19922,-0.33593 0.30468,-0.5 0.0273,-0.0391 0.0547,-0.082 0.082,-0.12109 0.10937,-0.16016 0.22265,-0.31641 0.33984,-0.46484 l 0.004,-0.008 c 0.12109,-0.15234 0.25,-0.30078 0.38281,-0.4414 0.0312,-0.0352 0.0664,-0.0703 0.0977,-0.10547 0.13282,-0.14063 0.26954,-0.27735 0.41016,-0.40625 l 0.004,-0.008 c 0.10937,-0.0977 0.22265,-0.19141 0.33593,-0.28516 0.0312,-0.0273 0.0664,-0.0508 0.0977,-0.0742 0.0586,-0.0469 0.11719,-0.0898 0.17578,-0.13672 0.10547,-0.0781 0.21485,-0.15625 0.32422,-0.23047 0.0625,-0.043 0.12109,-0.082 0.18359,-0.12109 0.1211,-0.0781 0.2461,-0.14844 0.3711,-0.22266 0.0508,-0.0273 0.10156,-0.0586 0.15625,-0.0898 0.17578,-0.0937 0.35547,-0.18359 0.53906,-0.26563 l -2.57031,-2.65625 -0.043,-0.0469 c -0.12891,-0.13672 -0.25,-0.27344 -0.36719,-0.41797 -0.0312,-0.0391 -0.0664,-0.0742 -0.10156,-0.11719 -0.14453,-0.18359 -0.28125,-0.375 -0.41406,-0.57422 -0.0352,-0.0508 -0.0625,-0.10937 -0.0977,-0.16015 -0.0937,-0.14844 -0.18359,-0.29688 -0.26562,-0.45313 -0.043,-0.0781 -0.0781,-0.15625 -0.11719,-0.23437 -0.0664,-0.13672 -0.13281,-0.27344 -0.19141,-0.41406 -0.0391,-0.0898 -0.0742,-0.17969 -0.10547,-0.26954 -0.0547,-0.13671 -0.10547,-0.27734 -0.14843,-0.41796 -0.0312,-0.0937 -0.0586,-0.1875 -0.0859,-0.28125 -0.043,-0.14844 -0.0781,-0.29688 -0.10938,-0.44532 -0.0195,-0.0937 -0.043,-0.1875 -0.0586,-0.28125 -0.0312,-0.16406 -0.0547,-0.33203 -0.0742,-0.5 -0.0117,-0.082 -0.0234,-0.16406 -0.0312,-0.24609 -0.0234,-0.25391 -0.0352,-0.51172 -0.0352,-0.76953 v -8.71094 c 0,-0.21094 0.008,-0.41797 0.0234,-0.62109 0.004,-0.0547 0.008,-0.10547 0.0156,-0.15625 0.0195,-0.20313 0.043,-0.40625 0.0781,-0.60547 0.0352,-0.19922 0.0781,-0.39844 0.12891,-0.58985 0.0117,-0.0508 0.0273,-0.0977 0.0391,-0.14453 0.0508,-0.19531 0.10938,-0.38672 0.17578,-0.57422 0.0664,-0.1875 0.14063,-0.36718 0.22266,-0.54687 0.0195,-0.0469 0.0391,-0.0898 0.0586,-0.13672 0.082,-0.17578 0.17188,-0.35547 0.26563,-0.52344 0.0937,-0.17187 0.19922,-0.33984 0.30468,-0.5039 0.0273,-0.0391 0.0547,-0.0781 0.082,-0.1211 0.10937,-0.16015 0.22265,-0.3164 0.34375,-0.46875 l 0.004,-0.004 c 0.11719,-0.15235 0.2461,-0.29688 0.37891,-0.44141 0.0352,-0.0352 0.0664,-0.0703 0.10156,-0.10547 0.13281,-0.14062 0.26953,-0.27734 0.41406,-0.41015 0.10938,-0.0977 0.21875,-0.19532 0.33203,-0.28516 0.0312,-0.0273 0.0703,-0.0508 0.10157,-0.0781 0.0547,-0.043 0.10937,-0.0859 0.16406,-0.1289 0.11328,-0.082 0.22266,-0.16016 0.33594,-0.23828 0.0586,-0.0391 0.11328,-0.0742 0.16797,-0.11328 0.14062,-0.0898 0.28515,-0.17188 0.42968,-0.25391 l 0.0937,-0.0547 c 0.16016,-0.0859 0.32422,-0.16797 0.49219,-0.24609 l -2.60937,-2.79688 -0.043,-0.0508 c -0.14063,-0.15234 -0.27735,-0.30859 -0.40625,-0.47265 -0.0469,-0.0664 -0.0937,-0.12891 -0.14063,-0.19532 -0.0898,-0.125 -0.17969,-0.24609 -0.26562,-0.3789 -0.0469,-0.0742 -0.0937,-0.15625 -0.14063,-0.23438 -0.0742,-0.12109 -0.14453,-0.24609 -0.21484,-0.37109 -0.043,-0.0859 -0.0859,-0.17578 -0.12891,-0.26172 -0.0586,-0.125 -0.11719,-0.25391 -0.17187,-0.38281 -0.0391,-0.0937 -0.0742,-0.1836 -0.10938,-0.27735 -0.0508,-0.13281 -0.0977,-0.26562 -0.14062,-0.40234 -0.0273,-0.0937 -0.0586,-0.19141 -0.0859,-0.28516 -0.0391,-0.14453 -0.0703,-0.28906 -0.10156,-0.43359 -0.0234,-0.0937 -0.043,-0.1875 -0.0625,-0.28125 -0.0273,-0.16016 -0.0469,-0.32813 -0.0664,-0.49219 -0.0117,-0.082 -0.0234,-0.16406 -0.0352,-0.24609 -0.0195,-0.25 -0.0312,-0.5 -0.0312,-0.75781 v -4.44922 c 0,-0.15235 0.004,-0.30078 0.0117,-0.44531 0.004,-0.0508 0.008,-0.0977 0.0117,-0.14844 0.004,-0.0977 0.0156,-0.19531 0.0234,-0.29297 0.008,-0.0586 0.0156,-0.11328 0.0234,-0.16797 0.0117,-0.0898 0.0234,-0.17969 0.0391,-0.26562 0.008,-0.0586 0.0195,-0.11719 0.0273,-0.17579 0.0195,-0.0859 0.0352,-0.16796 0.0547,-0.2539 0.0117,-0.0586 0.0234,-0.11719 0.0391,-0.17188 0.0195,-0.0859 0.043,-0.16797 0.0664,-0.25 0.0156,-0.0547 0.0312,-0.11328 0.0469,-0.16797 0.0273,-0.0859 0.0547,-0.17187 0.082,-0.2539 0.0156,-0.0508 0.0352,-0.10156 0.0508,-0.15235 0.0352,-0.0977 0.0742,-0.19531 0.11328,-0.28906 0.0156,-0.0352 0.0273,-0.0703 0.0391,-0.10547 0.0547,-0.1289 0.11328,-0.25781 0.17578,-0.38281 l 0.0391,-0.082 c 0.0508,-0.0977 0.10157,-0.19531 0.15625,-0.29297 0.0234,-0.043 0.0469,-0.0859 0.0742,-0.12891 0.043,-0.0781 0.0898,-0.15625 0.13672,-0.23437 0.0273,-0.0469 0.0586,-0.0937 0.0898,-0.14063 0.0469,-0.0703 0.0937,-0.14062 0.14062,-0.21093 0.0312,-0.0469 0.0664,-0.0937 0.10156,-0.13672 0.0469,-0.0703 0.0977,-0.13672 0.14844,-0.20313 0.0352,-0.043 0.0703,-0.0898 0.10547,-0.13281 0.0547,-0.0664 0.10937,-0.13281 0.16406,-0.19531 0.0352,-0.043 0.0703,-0.082 0.10547,-0.125 0.0625,-0.0664 0.125,-0.13672 0.1875,-0.19922 0.0352,-0.0352 0.0664,-0.0703 0.0977,-0.10547 0.0859,-0.0859 0.17578,-0.16797 0.26172,-0.25 l 0.0391,-0.0391 c 0.10547,-0.0937 0.21094,-0.1836 0.3164,-0.27344 l 0.0469,-0.0352 c 0.15234,-0.12109 0.30859,-0.24218 0.47266,-0.35156 l 0.0547,-0.043 c 0.16407,-0.11328 0.33594,-0.21875 0.50782,-0.3164 0.0312,-0.0195 0.0625,-0.0391 0.0977,-0.0547 0.16797,-0.0977 0.34375,-0.1875 0.52344,-0.27344 l 0.0937,-0.043 c 0.1875,-0.082 0.375,-0.16406 0.57031,-0.23437 l 0.0312,-0.0117 c 0.1875,-0.0664 0.38281,-0.12891 0.58203,-0.18359 l 0.082,-0.0234 c 0.19532,-0.0508 0.39454,-0.0937 0.59766,-0.13281 0.0352,-0.008 0.0742,-0.0117 0.11328,-0.0195 0.19922,-0.0352 0.40625,-0.0625 0.60938,-0.082 0.0352,-0.004 0.0664,-0.004 0.10156,-0.008 0.21484,-0.0156 0.43359,-0.0273 0.65625,-0.0273 0.46094,0 0.91406,0.0391 1.35547,0.11328 0.17578,0.0312 0.34765,0.0664 0.51953,0.10937 0.125,0.0273 0.25,0.0586 0.36719,0.0937 0.17578,0.0508 0.35156,0.10938 0.52343,0.16797 0.32422,0.11719 0.63282,0.25781 0.9375,0.41406 0.10938,0.0547 0.21485,0.11329 0.32032,0.17188 0.16015,0.0937 0.3164,0.19141 0.46875,0.29297 l 0.0391,0.0234 c 0.0508,0.0352 0.10156,0.0703 0.15234,0.10546 0.0547,0.043 0.11328,0.082 0.16797,0.1211 0.15235,0.11328 0.29688,0.23437 0.44141,0.35937 0.15234,0.12891 0.30078,0.26563 0.4414,0.40625 0.0977,0.10157 0.19532,0.20313 0.28907,0.3086 l 0.0234,0.0195 36.01172,40.24218 24.79688,-16.17187 c 0.5625,-0.36719 1.14844,-0.6875 1.75,-0.96875 1.78125,-0.82031 3.71484,-1.25391 5.69531,-1.26953 0.0352,0 0.0703,-0.004 0.10547,-0.004 1.14453,0 2.28906,0.14453 3.39844,0.42578 1.10547,0.28125 2.17968,0.69922 3.1875,1.2461 0.29297,0.15625 0.57422,0.32422 0.84765,0.5 0.0937,0.0547 0.17969,0.12109 0.26953,0.17968 0.17969,0.1211 0.35938,0.24219 0.53125,0.3711 0.10547,0.0781 0.20313,0.15625 0.30469,0.23828 0.15235,0.11719 0.30469,0.23828 0.45313,0.36328 0.10547,0.0898 0.20312,0.18359 0.30078,0.27344 0.13672,0.125 0.27734,0.24609 0.40625,0.3789 l 0.0898,0.082 c 0.13281,0.13281 0.26172,0.26953 0.39063,0.41015 l 0.082,0.0859 c 0.16797,0.18359 0.32812,0.37109 0.48047,0.5625 l 60.6914,74.73047 c -12.62109,52.43359 -52.79297,94.14062 -104.33593,108.95312 M 187.5,118.52344 c -4.375,0 -7.93359,3.55859 -7.93359,7.9375 v 4.44922 c 0,3.70703 2.40234,6.78906 5.97656,7.67187 0.0781,0.0195 0.13281,0.0898 0.13281,0.17188 0,0.0781 -0.0547,0.15234 -0.13281,0.16796 -3.51953,0.90625 -5.97656,4.05469 -5.97656,7.66016 v 8.71094 c 0,3.70312 2.39843,6.78515 5.96875,7.66797 0.0781,0.0195 0.13281,0.0898 0.13671,0.16797 0,0.082 -0.0547,0.15234 -0.13671,0.17187 -3.51563,0.90234 -5.96875,4.05078 -5.96875,7.65625 v 8.70703 c 0,3.70313 2.39843,6.78516 5.96484,7.67188 0.0781,0.0195 0.13281,0.0898 0.13281,0.17187 0.004,0.082 -0.0547,0.15235 -0.13281,0.17188 -3.51172,0.90234 -5.96484,4.05468 -5.96484,7.65625 v 8.70703 c 0,3.70312 2.39843,6.78515 5.96875,7.66797 0.0781,0.0195 0.13281,0.0898 0.13671,0.17187 0,0.082 -0.0547,0.15235 -0.13281,0.17188 -3.51953,0.90234 -5.97265,4.05468 -5.97265,7.65625 v 8.70703 c 0,3.71094 2.40234,6.79297 5.97656,7.67187 0.0781,0.0195 0.13281,0.0898 0.13281,0.17188 0,0.082 -0.0547,0.15234 -0.13281,0.17187 -3.51953,0.89844 -5.97656,4.05078 -5.97656,7.66016 v 4.44922 c 0,4.44922 3.48437,7.93359 7.93359,7.93359 4.44922,0 7.9375,-3.48437 7.9375,-7.93359 v -4.44922 c 0,-3.60938 -2.46094,-6.75781 -5.98047,-7.66016 -0.0781,-0.0195 -0.13281,-0.0898 -0.13281,-0.17187 0,-0.082 0.0547,-0.15235 0.13281,-0.17188 3.57813,-0.8789 5.98047,-3.96484 5.98047,-7.67187 v -8.70703 c 0,-3.60157 -2.45703,-6.75391 -5.97656,-7.65625 -0.0781,-0.0195 -0.13282,-0.0898 -0.13282,-0.17188 0,-0.082 0.0547,-0.15234 0.13282,-0.17187 3.57422,-0.88282 5.97656,-3.96485 5.97656,-7.66797 v -8.70703 c 0,-3.60157 -2.45703,-6.75391 -5.96875,-7.65625 -0.0781,-0.0195 -0.13672,-0.0898 -0.13281,-0.17188 0,-0.082 0.0547,-0.15234 0.13281,-0.17187 3.57031,-0.88282 5.96875,-3.96485 5.96875,-7.67188 v -8.70703 c 0,-3.60547 -2.45703,-6.75391 -5.97656,-7.65625 -0.0781,-0.0195 -0.13282,-0.0898 -0.13282,-0.17187 0,-0.0781 0.0547,-0.14844 0.13282,-0.16797 3.57422,-0.88282 5.97656,-3.96485 5.97656,-7.66797 v -8.71094 c 0,-3.60547 -2.46094,-6.75391 -5.98047,-7.66016 -0.0781,-0.0156 -0.13281,-0.0898 -0.13281,-0.16796 0,-0.082 0.0547,-0.15235 0.13281,-0.17188 3.57813,-0.87891 5.98047,-3.96094 5.98047,-7.67187 v -4.44922 c 0,-4.37891 -3.5625,-7.9375 -7.9375,-7.9375 m 74.40625,24.53515 c -2.65234,0 -5.23047,0.76563 -7.45313,2.21485 l -47.22656,30.79297 c -3.8789,2.53125 -6.1914,6.80468 -6.1914,11.43359 0,4.63672 2.3125,8.91016 6.1914,11.4375 l 47.23047,30.79297 c 2.22266,1.44922 4.80078,2.21094 7.45313,2.21094 2.26171,0 4.51171,-0.56641 6.5039,-1.64844 4.40625,-2.38672 7.14453,-6.98438 7.14453,-12 v -61.57813 c 0.008,-5.01562 -2.73047,-9.61718 -7.14843,-12.0039 -1.9961,-1.08203 -4.2461,-1.65235 -6.50391,-1.65235 m -148.8125,0 c -2.26172,0 -4.51172,0.57032 -6.50391,1.65235 -4.41015,2.38672 -7.148434,6.98437 -7.148434,11.99609 v 61.58594 c 0,5.01562 2.738284,9.61328 7.148434,12 1.99219,1.08203 4.23829,1.64844 6.5,1.64844 2.65235,0 5.23047,-0.76172 7.45704,-2.21094 l 47.21874,-30.79297 c 3.88282,-2.52734 6.19922,-6.80078 6.19922,-11.4375 0,-4.62891 -2.3125,-8.90234 -6.1914,-11.43359 l -47.22656,-30.79297 c -2.21875,-1.44922 -4.79688,-2.21485 -7.45313,-2.21485"
         fill-opacity="1"
         fill-rule="nonzero"
         id="path5" />
    </g>
  </g>
  <path
     fill="#000000"
     d="m 153.11719,93.41016 c 0,4.15625 -6.23047,4.15625 -6.23047,0 v -4.44922 c 0,-1.72266 1.39453,-3.11719 3.11328,-3.11719 1.71875,0 3.11719,1.39453 3.11719,3.11719 z m 0,15.67187 v 8.70703 c 0,4.15625 -6.23047,4.15625 -6.23047,0 v -8.70703 c 0,-1.72266 1.39453,-3.11328 3.11328,-3.11328 1.71875,0 3.11719,1.39062 3.11719,3.11328 z m 0,24.37891 v 8.70703 c 0,4.15234 -6.23047,4.15234 -6.23047,0 v -8.70703 c 0,-1.71875 1.39453,-3.11719 3.11328,-3.11719 1.71875,0 3.11719,1.39844 3.11719,3.11719 z m 0,24.375 v 8.70703 c 0,4.15625 -6.23047,4.15625 -6.23047,0 v -8.70703 c 0,-1.72266 1.39453,-3.11719 3.11328,-3.11719 1.71875,0 3.11719,1.39453 3.11719,3.11719 z m 0,24.375 v 8.70703 c 0,4.15625 -6.23047,4.15625 -6.23047,0 v -8.70703 c 0,-1.71875 1.39453,-3.11328 3.11328,-3.11328 1.71875,0 3.11719,1.39453 3.11719,3.11328 z m 0,24.38281 v 4.44922 c 0,4.15625 -6.23047,4.15625 -6.23047,0 v -4.44922 c 0,-1.72656 1.39453,-3.11719 3.11328,-3.11719 1.71875,0 3.11719,1.39063 3.11719,3.11719 z M 150,80.84766 c -4.47266,0 -8.10938,3.64062 -8.10938,8.11328 v 4.44922 c 0,3.85156 2.5625,6.96875 6.10938,7.84375 -3.50391,0.89843 -6.10938,4.05078 -6.10938,7.82812 v 8.71094 c 0,3.84375 2.5625,6.96484 6.10157,7.83594 -3.4961,0.89843 -6.10157,4.05468 -6.10157,7.82812 v 8.70703 c 0,3.85156 2.5586,6.96485 6.09766,7.84375 -3.49609,0.90235 -6.09766,4.05469 -6.09766,7.82813 v 8.70703 c 0,3.84765 2.5625,6.96484 6.10157,7.83984 -3.4961,0.90235 -6.10157,4.05469 -6.10157,7.82813 v 8.70703 c 0,3.85156 2.5625,6.97265 6.10938,7.84375 -3.50391,0.89844 -6.10938,4.05469 -6.10938,7.83203 v 4.44922 c 0,4.55078 3.5586,8.10937 8.10938,8.10937 4.55078,0 8.11328,-3.55859 8.11328,-8.10937 v -4.44922 c 0,-3.77734 -2.60937,-6.93359 -6.11328,-7.83203 3.54297,-0.8711 6.11328,-3.99219 6.11328,-7.84375 v -8.70703 c 0,-3.77344 -2.60937,-6.92578 -6.10937,-7.82813 3.54296,-0.875 6.10937,-3.99219 6.10937,-7.83984 v -8.70703 c 0,-3.77344 -2.60547,-6.92578 -6.10156,-7.82813 3.53906,-0.875 6.10156,-3.99219 6.10156,-7.84375 v -8.70703 c 0,-3.77344 -2.60937,-6.92969 -6.10937,-7.82812 3.54296,-0.8711 6.10937,-3.99219 6.10937,-7.83594 v -8.71094 c 0,-3.77734 -2.60937,-6.92969 -6.11328,-7.82812 3.54297,-0.8711 6.11328,-3.99219 6.11328,-7.84375 v -4.44922 c 0,-4.47266 -3.64062,-8.11328 -8.11328,-8.11328"
     fill-opacity="1"
     fill-rule="nonzero"
     id="path6" />
  <path
     fill="#000000"
     d="M 124.23828,147.82422 77.01172,117.03125 c -0.41406,-0.27734 -0.89844,-0.42969 -1.40234,-0.43359 -0.4375,0.004 -0.8711,0.11328 -1.25391,0.32812 -0.85156,0.44141 -1.37891,1.32813 -1.36328,2.28125 v 61.58594 c 0,2.0625 2.28906,3.30469 4.01953,2.17969 l 47.22656,-30.79297 c 1.57031,-1.02735 1.57031,-3.33203 0,-4.35547"
     fill-opacity="1"
     fill-rule="nonzero"
     id="path7" />
  <path
     fill="#000000"
     d="m 127.64062,157.39844 -47.22265,30.79297 c -2.71484,1.76953 -6.18359,1.91015 -9.03125,0.36718 -2.85156,-1.54297 -4.62891,-4.52343 -4.62891,-7.76562 v -61.58594 c 0,-3.23828 1.77735,-6.21875 4.62891,-7.76172 2.84766,-1.54687 6.3125,-1.40625 9.03125,0.36328 l 47.22265,30.79688 c 2.5,1.6289 4.00782,4.41015 4.00782,7.39453 0,2.98828 -1.50782,5.76953 -4.00782,7.39844 z M 130.36719,138.41797 83.14063,107.625 c -2.25,-1.46875 -4.85938,-2.24219 -7.54688,-2.24219 -2.29297,0 -4.57422,0.57813 -6.58984,1.67188 -4.46485,2.41797 -7.238285,7.07422 -7.238285,12.15234 v 61.58594 c 0,5.08203 2.773435,9.73437 7.238285,12.15625 2.01562,1.08984 4.29297,1.67187 6.58593,1.67187 2.69141,0 5.30079,-0.77734 7.55469,-2.24609 l 47.21875,-30.79297 c 3.93359,-2.55859 6.27734,-6.88672 6.27734,-11.58203 0,-4.6875 -2.34375,-9.01953 -6.27343,-11.58203"
     fill-opacity="1"
     fill-rule="nonzero"
     id="path8" />
  <path
     fill="#000000"
     d="m 233.24219,180.79297 c 0,3.24219 -1.77735,6.22265 -4.625,7.76562 -2.85157,1.54297 -6.31641,1.40235 -9.03125,-0.36328 l -47.22657,-30.79687 c -2.5039,-1.62891 -4.00781,-4.41016 -4.00781,-7.39844 0,-2.98438 1.50391,-5.76563 4.00781,-7.39453 l 47.22657,-30.79297 c 2.71484,-1.77344 6.17968,-1.91016 9.03125,-0.36328 2.85156,1.53906 4.6289,4.51953 4.625,7.75781 z m -2.25,-73.73828 c -2.01563,-1.09375 -4.29297,-1.67188 -6.58594,-1.67188 -2.6875,0 -5.30078,0.77735 -7.55078,2.24219 l -47.22656,30.79297 c -3.92579,2.5625 -6.26954,6.89062 -6.26954,11.58203 0,4.69531 2.34375,9.02344 6.26954,11.58203 l 47.23046,30.79297 c 2.25,1.46875 4.85938,2.24609 7.55079,2.24609 2.29296,0 4.57031,-0.58203 6.58593,-1.67187 4.46485,-2.42188 7.23828,-7.07813 7.23828,-12.15625 v -61.57813 c 0.008,-5.08203 -2.76953,-9.74218 -7.24218,-12.16015"
     fill-opacity="1"
     fill-rule="nonzero"
     id="path9" />
  <path
     fill="#000000"
     d="m 225.64453,116.92578 c -0.38672,-0.21094 -0.81641,-0.32031 -1.25781,-0.32422 -0.4961,0 -0.98438,0.15235 -1.40235,0.42969 l -47.22656,30.79297 c -1.5664,1.02734 -1.5664,3.32812 0,4.35547 l 47.23438,30.79297 c 1.73047,1.125 4.02343,-0.11719 4.02343,-2.17969 l -0.008,-61.58594 c 0.0117,-0.95312 -0.51562,-1.83984 -1.36328,-2.28125"
     fill-opacity="1"
     fill-rule="nonzero"
     id="path10" />
</svg>
